<svg width="578" height="15" viewBox="0 0 578 15" fill="none" xmlns="http://www.w3.org/2000/svg">
<path d="M576.048 4.21041L575.804 5.18013L576.048 4.21041ZM45.4537 14.9942C46.0028 15.0535 46.4959 14.6564 46.5552 14.1073C46.6145 13.5582 46.2174 13.065 45.6683 13.0057L45.4537 14.9942ZM0.997439 10.8783C101.615 11.136 251.109 11.1618 372.586 10.4017C433.324 10.0217 487.062 9.44521 524.186 8.60287C542.745 8.18178 557.165 7.69397 566.235 7.13007C570.752 6.84919 573.997 6.54654 575.763 6.21343C576.206 6.12994 576.594 6.03779 576.899 5.9309C577.05 5.87789 577.214 5.81015 577.364 5.71987C577.493 5.6425 577.734 5.47832 577.881 5.1818C578.075 4.79406 578.018 4.3754 577.815 4.06302C577.657 3.81917 577.438 3.67889 577.308 3.60566C577.031 3.44941 576.667 3.33489 576.293 3.24068L575.804 5.18013C575.964 5.22042 576.088 5.25721 576.181 5.28947C576.227 5.30544 576.262 5.31914 576.288 5.33015C576.303 5.33665 576.306 5.33772 576.317 5.34326C576.327 5.34799 576.321 5.34508 576.327 5.34837C576.331 5.35039 576.316 5.34136 576.316 5.34117C576.313 5.33897 576.288 5.32027 576.28 5.31455C576.252 5.29108 576.194 5.23885 576.137 5.1518C575.991 4.9257 575.94 4.59268 576.091 4.28996C576.148 4.17525 576.217 4.10259 576.257 4.06577C576.297 4.02805 576.328 4.00916 576.335 4.005C576.346 3.99846 576.322 4.01381 576.238 4.04328C576.072 4.10134 575.798 4.17162 575.392 4.24808C573.766 4.55478 570.641 4.85223 566.111 5.13392C557.084 5.69517 542.698 6.18233 524.141 6.60338C487.034 7.44533 433.309 8.02175 372.574 8.40175C251.105 9.16174 101.617 9.13597 1.00256 8.87834L0.997439 10.8783ZM576.293 3.24068C574.393 2.76219 570.242 2.35919 564.275 2.00874C558.267 1.65586 550.318 1.35209 540.748 1.09534C521.607 0.581793 495.953 0.255663 466.309 0.102664C407.02 -0.203343 331.75 0.183116 260.66 1.14926C189.573 2.11537 122.651 3.66128 80.0617 5.67482C58.7969 6.68017 43.5199 7.80488 36.8407 9.04571C35.9987 9.20213 35.2756 9.36347 34.6843 9.53133C34.1088 9.69471 33.5964 9.88096 33.2151 10.1085C33.0255 10.2216 32.8073 10.3803 32.6378 10.6045C32.4539 10.8476 32.3098 11.1976 32.376 11.6093C32.4374 11.9906 32.6542 12.2605 32.8344 12.428C33.0178 12.5984 33.2349 12.7305 33.4453 12.8362C34.251 13.2412 35.6625 13.5972 37.5853 13.9387C39.5484 14.2873 42.1608 14.6388 45.4537 14.9942L45.6683 13.0057C42.3964 12.6526 39.8344 12.3068 37.9349 11.9695C35.9951 11.625 34.8556 11.3067 34.3435 11.0492C34.2243 10.9894 34.189 10.9566 34.1958 10.9629C34.1995 10.9663 34.3155 11.0728 34.3506 11.2915C34.3907 11.5406 34.2951 11.7287 34.233 11.8108C34.1853 11.8739 34.1623 11.8723 34.24 11.8259C34.3933 11.7344 34.7041 11.6047 35.2305 11.4553C35.741 11.3104 36.3986 11.1621 37.206 11.0121C43.7227 9.80141 58.8493 8.67993 80.1561 7.67258C122.71 5.66072 189.604 4.11513 260.687 3.14908C331.768 2.18307 407.024 1.79671 466.299 2.10264C495.937 2.25561 521.574 2.58164 540.695 3.09462C550.255 3.35113 558.18 3.65422 564.157 4.0053C570.176 4.35882 574.124 4.7569 575.804 5.18013L576.293 3.24068Z" fill="#A5FECB"/>
</svg>
