<svg width="62" height="62" viewBox="0 0 62 62" fill="none" xmlns="http://www.w3.org/2000/svg">
<path d="M16.2744 12.9167H54.25L49.0833 31H19.0565M51.6667 41.3333H20.6667L15.5 7.75H7.75M23.25 51.6667C23.25 53.0934 22.0934 54.25 20.6667 54.25C19.2399 54.25 18.0833 53.0934 18.0833 51.6667C18.0833 50.2399 19.2399 49.0833 20.6667 49.0833C22.0934 49.0833 23.25 50.2399 23.25 51.6667ZM51.6667 51.6667C51.6667 53.0934 50.5101 54.25 49.0833 54.25C47.6566 54.25 46.5 53.0934 46.5 51.6667C46.5 50.2399 47.6566 49.0833 49.0833 49.0833C50.5101 49.0833 51.6667 50.2399 51.6667 51.6667Z" stroke="#20BDFF" stroke-width="3" stroke-linecap="round" stroke-linejoin="round"/>
</svg>
