<svg width="62" height="62" viewBox="0 0 62 62" fill="none" xmlns="http://www.w3.org/2000/svg">
<path d="M12.9167 41.3333V51.6666M15.5 10.3333V20.6666M18.0833 46.4999H7.75M20.6667 15.4999H10.3333M33.5833 10.3333L38.1115 21.8145C38.5969 23.0454 38.8397 23.6608 39.2113 24.1798C39.5407 24.6398 39.9435 25.0425 40.4035 25.3719C40.9224 25.7436 41.5379 25.9863 42.7687 26.4718L54.25 30.9999L42.7687 35.5281C41.5379 36.0135 40.9224 36.2562 40.4035 36.6279C39.9435 36.9573 39.5407 37.3601 39.2113 37.8201C38.8397 38.339 38.5969 38.9544 38.1115 40.1853L33.5833 51.6666L29.0552 40.1853C28.5697 38.9544 28.327 38.339 27.9554 37.8201C27.6259 37.3601 27.2232 36.9573 26.7632 36.6279C26.2442 36.2562 25.6288 36.0135 24.398 35.5281L12.9167 30.9999L24.398 26.4718C25.6288 25.9863 26.2442 25.7436 26.7632 25.3719C27.2232 25.0425 27.6259 24.6398 27.9554 24.1798C28.327 23.6608 28.5697 23.0454 29.0552 21.8145L33.5833 10.3333Z" stroke="#20BDFF" stroke-width="3" stroke-linecap="round" stroke-linejoin="round"/>
</svg>
