<svg width="62" height="62" viewBox="0 0 62 62" fill="none" xmlns="http://www.w3.org/2000/svg">
<path d="M42.2183 54.25H54.25L43.9167 40.0417H54.25L43.6093 25.8333H54.25L36.279 7.75L24.5417 19.375M7.75 41.3333L19.178 30.9443C20.1598 30.0517 20.6507 29.6054 21.2069 29.4363C21.6968 29.2874 22.2199 29.2874 22.7097 29.4363C23.2659 29.6054 23.7569 30.0517 24.7387 30.9443L36.1667 41.3333M12.9167 36.6364V50.1167C12.9167 51.5635 12.9167 52.2869 13.1982 52.8395C13.4459 53.3256 13.8411 53.7208 14.3272 53.9684C14.8798 54.25 15.6032 54.25 17.05 54.25H26.8667C28.3135 54.25 29.0369 54.25 29.5895 53.9684C30.0756 53.7208 30.4708 53.3256 30.7184 52.8395C31 52.2869 31 51.5635 31 50.1167L31 36.6364" stroke="#20BDFF" stroke-width="3" stroke-linecap="round" stroke-linejoin="round"/>
</svg>
