<svg width="20" height="20" viewBox="0 0 20 20" fill="none" xmlns="http://www.w3.org/2000/svg">
<g clip-path="url(#clip0_1_4735)">
<path fill-rule="evenodd" clip-rule="evenodd" d="M2.30769 3.4615C2.30769 1.68704 3.53121 0 5.32051 0C6.10608 0 6.79939 0.341563 7.31502 0.863744C8.22149 0.120715 9.56147 0.172321 10.4077 1.01856L10.9516 1.56249C11.2521 1.86289 11.2521 2.34993 10.9516 2.65033L7.68808 5.91387C7.38768 6.21427 6.90063 6.21427 6.60022 5.91387L6.05629 5.36994C5.15509 4.46874 5.15509 3.00761 6.05629 2.10641L6.21931 1.94339C5.9538 1.67405 5.63748 1.53845 5.32051 1.53845C4.63161 1.53845 3.84615 2.26215 3.84615 3.4615V8.46145H18.0769C19.139 8.46145 20 9.32243 20 10.3845C20 11.0516 19.6603 11.6394 19.1444 11.9843L18.2334 15.7112C18.126 16.1505 17.9577 16.562 17.7389 16.9379L18.4221 18.9873C18.5564 19.3903 18.3386 19.826 17.9356 19.9603C17.5325 20.0947 17.0969 19.8768 16.9626 19.4738L16.5628 18.2745C15.777 18.8784 14.7969 19.2306 13.75 19.2306H6.25C5.20312 19.2306 4.22295 18.8784 3.43724 18.2745L3.03745 19.4738C2.9031 19.8768 2.46747 20.0947 2.06444 19.9603C1.66141 19.826 1.44359 19.3903 1.57794 18.9873L2.26109 16.9379C2.04226 16.562 1.874 16.1505 1.76661 15.7112L0.855604 11.9843C0.339719 11.6394 0 11.0516 0 10.3845C0 9.32243 0.860991 8.46145 1.92308 8.46145H2.30769V3.4615ZM17.4816 12.3076H2.51838L3.26107 15.3458C3.59776 16.7232 4.83209 17.6921 6.25 17.6921H13.75C15.1679 17.6921 16.4022 16.7232 16.7389 15.3458L17.4816 12.3076ZM18.0769 10.7691C18.2893 10.7691 18.4615 10.5969 18.4615 10.3845C18.4615 10.1721 18.2893 9.9999 18.0769 9.9999H1.92308C1.71066 9.9999 1.53846 10.1721 1.53846 10.3845C1.53846 10.5969 1.71066 10.7691 1.92308 10.7691H18.0769ZM7.14415 4.2821C6.84375 3.9817 6.84375 3.49465 7.14415 3.19425L8.23201 2.10641C8.53241 1.80601 9.01946 1.80601 9.31986 2.10641L7.14415 4.2821Z" fill="#20BDFF"/>
</g>
<defs>
<clipPath id="clip0_1_4735">
<rect width="20" height="20" fill="white"/>
</clipPath>
</defs>
</svg>
