<svg width="494" height="63" viewBox="0 0 494 63" fill="none" xmlns="http://www.w3.org/2000/svg">
<path d="M1 54.467C0.447715 54.467 0 54.9147 0 55.467C0 56.0192 0.447715 56.467 1 56.467V54.467ZM492.943 38.9166L491.951 38.7878L492.943 38.9166ZM5.83945 31.0769L4.83945 31.0769L5.83945 31.0769ZM1 56.467C102.478 56.467 224.684 58.6993 321.876 57.7467C370.476 57.2703 412.865 55.9977 443.321 53.2478C458.542 51.8736 470.828 50.1267 479.431 47.9117C483.727 46.8057 487.164 45.5684 489.601 44.1686C492.001 42.7903 493.665 41.1171 493.934 39.0454L491.951 38.7878C491.806 39.9011 490.852 41.144 488.605 42.4343C486.396 43.7029 483.16 44.8865 478.932 45.9748C470.49 48.1485 458.334 49.8842 443.141 51.2559C412.771 53.9981 370.449 55.2705 321.856 55.7468C224.661 56.6994 102.55 54.467 1 54.467V56.467ZM493.934 39.0454C494.384 35.5807 492.515 32.4769 489.113 29.7538C485.71 27.0294 480.604 24.5371 474.115 22.2492C461.121 17.6678 442.279 13.8046 419.572 10.6481C374.137 4.33234 313.01 0.817871 251.714 0.126817C190.418 -0.564249 128.909 1.56774 82.709 6.55575C59.6168 9.04889 40.3037 12.2601 26.7432 16.2047C19.9703 18.1749 14.5677 20.346 10.8373 22.741C7.14332 25.1126 4.83943 27.8719 4.83945 31.0769L6.83945 31.0769C6.83943 28.926 8.38917 26.6894 11.9178 24.424C15.41 22.1819 20.5989 20.0749 27.3018 18.1251C40.6928 14.2298 59.8681 11.0334 82.9236 8.5442C129.019 3.56756 190.442 1.43615 251.692 2.12669C312.943 2.81724 373.977 6.32937 419.296 12.629C441.966 15.7802 460.649 19.6218 473.45 24.1354C479.859 26.3951 484.719 28.7978 487.863 31.3152C491.01 33.8338 492.272 36.3183 491.951 38.7878L493.934 39.0454ZM4.83945 31.0769C4.83947 35.3567 7.10266 39.0098 10.9724 42.0963C14.8275 45.1712 20.3596 47.7578 27.1399 49.9507C40.7094 54.3396 59.5726 57.2428 80.8408 59.1705C123.395 63.0274 175.854 63 215.479 63V61C175.829 61 123.468 61.0258 81.0213 57.1787C59.789 55.2542 41.1065 52.366 27.7554 48.0478C21.0753 45.8872 15.8033 43.3913 12.2195 40.5328C8.6502 37.6859 6.83947 34.5545 6.83945 31.0769L4.83945 31.0769Z" fill="#A5FECB"/>
</svg>
