<svg width="351" height="15" viewBox="0 0 351 15" fill="none" xmlns="http://www.w3.org/2000/svg">
<path d="M348.425 4.21041L348.04 5.13344L348.425 4.21041ZM27.7464 14.9844C28.2901 15.0815 28.8096 14.7195 28.9067 14.1758C29.0038 13.6321 28.6418 13.1127 28.0981 13.0155L27.7464 14.9844ZM0.995762 10.8783C61.787 11.136 152.11 11.1618 225.507 10.4017C262.203 10.0217 294.677 9.4451 317.115 8.60242C328.329 8.18129 337.059 7.69292 342.561 7.12674C345.285 6.84637 347.305 6.53925 348.439 6.18532C348.726 6.09553 349.006 5.98821 349.241 5.85227C349.432 5.74135 349.809 5.49157 349.949 5.0241C350.13 4.42447 349.808 3.96533 349.572 3.74548C349.347 3.53628 349.062 3.39262 348.81 3.28738L348.04 5.13344C348.221 5.20854 348.245 5.24261 348.208 5.20855C348.16 5.16385 347.905 4.87727 348.034 4.44766C348.124 4.1502 348.331 4.06788 348.238 4.12191C348.188 4.15091 348.067 4.20603 347.843 4.27619C346.927 4.56207 345.098 4.85506 342.356 5.13725C336.925 5.69621 328.251 6.18282 317.04 6.60383C294.631 7.44543 262.179 8.02179 225.486 8.40178C152.103 9.16173 61.7905 9.13597 1.00424 8.87835L0.995762 10.8783ZM348.81 3.28738C348.156 3.01483 347.177 2.78748 345.968 2.58532C344.737 2.37961 343.196 2.18887 341.373 2.01171C337.727 1.65728 332.912 1.35292 327.126 1.09596C315.551 0.581929 300.043 0.255713 282.13 0.102687C246.301 -0.203386 200.819 0.183159 157.864 1.14942C114.913 2.11558 74.4664 3.66176 48.7169 5.67675C35.889 6.68058 26.5837 7.80819 22.4702 9.07305C21.9448 9.23462 21.4801 9.40527 21.0907 9.58825C20.7126 9.76588 20.3479 9.98141 20.0702 10.2558C19.787 10.5355 19.502 10.9758 19.5575 11.5472C19.61 12.0862 19.9426 12.4689 20.2341 12.7115C20.8048 13.1863 21.7546 13.5688 22.9272 13.9135C24.1433 14.2709 25.7461 14.6271 27.7464 14.9844L28.0981 13.0155C26.1322 12.6644 24.6088 12.3231 23.4912 11.9947C22.3302 11.6534 21.7388 11.3616 21.5132 11.174C21.4067 11.0853 21.5274 11.1398 21.5482 11.3536C21.5721 11.5999 21.4358 11.718 21.4756 11.6787C21.5209 11.634 21.6535 11.5336 21.9412 11.3984C22.2175 11.2686 22.5869 11.1296 23.058 10.9847C26.917 9.7981 35.9805 8.67953 48.873 7.67065C74.5642 5.66023 114.965 4.11492 157.909 3.14892C200.848 2.18303 246.309 1.79675 282.113 2.10261C300.016 2.25556 315.496 2.5815 327.037 3.09399C332.809 3.3503 337.584 3.6528 341.18 4.00233C342.978 4.17716 344.47 4.36268 345.638 4.55795C346.827 4.75677 347.613 4.95513 348.04 5.13344L348.81 3.28738Z" fill="#A5FECB"/>
</svg>
