<svg width="40" height="40" viewBox="0 0 40 40" fill="none" xmlns="http://www.w3.org/2000/svg">
<g clip-path="url(#clip0_84_2996)">
<g clip-path="url(#clip1_84_2996)">
<path fill-rule="evenodd" clip-rule="evenodd" d="M4.61538 6.923C4.61538 3.37409 7.06243 0 10.641 0C12.2122 0 13.5988 0.683126 14.63 1.72749C16.443 0.241429 19.1229 0.344643 20.8154 2.03713L21.9033 3.12497C22.5041 3.72577 22.5041 4.69986 21.9033 5.30066L15.3762 11.8277C14.7754 12.4285 13.8013 12.4285 13.2004 11.8277L12.1126 10.7399C10.3102 8.93749 10.3102 6.01522 12.1126 4.21282L12.4386 3.88678C11.9076 3.3481 11.275 3.07689 10.641 3.07689C9.26322 3.07689 7.69231 4.5243 7.69231 6.923V16.9229H36.1538C38.278 16.9229 40 18.6449 40 20.769C40 22.1033 39.3206 23.2789 38.2888 23.9687L36.4668 31.4223C36.252 32.3009 35.9155 33.1241 35.4778 33.8757L36.8441 37.9746C37.1128 38.7807 36.6772 39.6519 35.8711 39.9206C35.0651 40.1893 34.1938 39.7537 33.9251 38.9476L33.1255 36.5489C31.5541 37.7569 29.5938 38.4611 27.5 38.4611H12.5C10.4062 38.4611 8.44591 37.7569 6.87448 36.5489L6.0749 38.9476C5.80621 39.7537 4.93495 40.1893 4.12888 39.9206C3.32281 39.6519 2.88718 38.7807 3.15587 37.9746L4.52219 33.8757C4.08451 33.1241 3.748 32.3009 3.53323 31.4223L1.71121 23.9687C0.679438 23.2789 0 22.1033 0 20.769C0 18.6449 1.72198 16.9229 3.84615 16.9229H4.61538V6.923ZM34.9633 24.6151H5.03675L6.52215 30.6917C7.19552 33.4464 9.66417 35.3842 12.5 35.3842H27.5C30.3358 35.3842 32.8045 33.4464 33.4779 30.6917L34.9633 24.6151ZM36.1538 21.5382C36.5787 21.5382 36.9231 21.1938 36.9231 20.769C36.9231 20.3442 36.5787 19.9998 36.1538 19.9998H3.84615C3.42132 19.9998 3.07692 20.3442 3.07692 20.769C3.07692 21.1938 3.42132 21.5382 3.84615 21.5382H36.1538ZM14.2883 8.5642C13.6875 7.9634 13.6875 6.98931 14.2883 6.38851L16.464 4.21282C17.0648 3.61202 18.0389 3.61202 18.6397 4.21282L14.2883 8.5642Z" fill="#20BDFF"/>
</g>
</g>
<defs>
<clipPath id="clip0_84_2996">
<rect width="40" height="40" fill="white"/>
</clipPath>
<clipPath id="clip1_84_2996">
<rect width="40" height="40" fill="white"/>
</clipPath>
</defs>
</svg>
