<svg width="40" height="40" viewBox="0 0 40 40" fill="none" xmlns="http://www.w3.org/2000/svg">
<g clip-path="url(#clip0_84_2989)">
<path fill-rule="evenodd" clip-rule="evenodd" d="M7.69231 0C5.99297 0 4.61538 1.37759 4.61538 3.07692V9.23077C4.61538 9.66697 4.70615 10.082 4.86983 10.4579C4.64051 10.7626 4.46533 11.1134 4.36041 11.4981L0.0542094 27.2875L0 27.4863V27.6923V35.3846C0 36.2343 0.688793 36.9231 1.53846 36.9231H4.61538V38.4615C4.61538 39.3112 5.30418 40 6.15385 40C7.00352 40 7.69231 39.3112 7.69231 38.4615V36.9231H32.3077V38.4615C32.3077 39.3112 32.9965 40 33.8462 40C34.6958 40 35.3846 39.3112 35.3846 38.4615V36.9231H38.4615C39.3112 36.9231 40 36.2343 40 35.3846V27.6923V27.4863L39.9458 27.2875L35.6396 11.4981C35.5347 11.1134 35.3595 10.7626 35.1302 10.4579C35.2938 10.082 35.3846 9.66697 35.3846 9.23077V3.07692C35.3846 1.37759 34.007 0 32.3077 0H7.69231ZM7.32892 12.3077L7.69231 12.3077H10.7692C10.7692 13.1574 11.458 13.8462 12.3077 13.8462H16.9231C17.7727 13.8462 18.4615 13.1574 18.4615 12.3077H21.5385C21.5385 13.1574 22.2273 13.8462 23.0769 13.8462H27.6923C28.542 13.8462 29.2308 13.1574 29.2308 12.3077H32.3077H32.6711L36.4473 26.1538H3.55269L7.32892 12.3077ZM29.2308 9.23077H32.3077V3.07692H7.69231V9.23077H10.7692V7.69231C10.7692 6.84264 11.458 6.15385 12.3077 6.15385H16.9231C17.7727 6.15385 18.4615 6.84264 18.4615 7.69231V9.23077H21.5385V7.69231C21.5385 6.84264 22.2273 6.15385 23.0769 6.15385H27.6923C28.542 6.15385 29.2308 6.84264 29.2308 7.69231V9.23077ZM3.07692 29.2308H36.9231V33.8462H33.8462H6.15385H3.07692V29.2308Z" fill="#20BDFF"/>
</g>
<defs>
<clipPath id="clip0_84_2989">
<rect width="40" height="40" fill="white"/>
</clipPath>
</defs>
</svg>
