<svg width="40" height="40" viewBox="0 0 40 40" fill="none" xmlns="http://www.w3.org/2000/svg">
<path d="M25.0013 30H15.0013M33.3346 5H31.668M31.668 5H8.33464M31.668 5C31.668 9.1837 29.6475 13.1099 26.2431 15.5416L20.0013 20M8.33464 5H6.66797M8.33464 5C8.33464 9.1837 10.3551 13.1099 13.7595 15.5416L20.0013 20M33.3346 35H31.668M31.668 35H8.33464M31.668 35C31.668 30.8163 29.6475 26.8901 26.2431 24.4584L20.0013 20M8.33464 35H6.66797M8.33464 35C8.33464 30.8163 10.3551 26.8901 13.7595 24.4584L20.0013 20" stroke="#20BDFF" stroke-width="3.33333" stroke-linecap="round" stroke-linejoin="round"/>
</svg>
