<svg width="22" height="18" viewBox="0 0 22 18" fill="none" xmlns="http://www.w3.org/2000/svg">
<path d="M5.03163 18C3.39011 18 2.14112 17.3913 1.28467 16.1739C0.428224 14.9565 0 13.287 0 11.1652C0 8.69565 0.624493 6.52174 1.87348 4.64348C3.12247 2.76522 5.03163 1.21739 7.60097 0L9.31387 3.33913C7.70803 4.10435 6.49473 5.02609 5.67397 6.10435C4.88889 7.14783 4.49635 8.43478 4.49635 9.96522C4.56772 9.93044 4.65693 9.91304 4.76399 9.91304C4.87105 9.91304 4.96026 9.91304 5.03163 9.91304C6.17356 9.91304 7.13706 10.2609 7.92214 10.9565C8.7429 11.6174 9.15328 12.5391 9.15328 13.7217C9.15328 15.0087 8.76075 16.0522 7.97567 16.8522C7.19059 17.6174 6.20925 18 5.03163 18ZM17.7178 18C16.0762 18 14.8273 17.3913 13.9708 16.1739C13.1144 14.9565 12.6861 13.287 12.6861 11.1652C12.6861 8.69565 13.3106 6.52174 14.5596 4.64348C15.8086 2.76522 17.7178 1.21739 20.2871 0L22 3.33913C20.3942 4.10435 19.1809 5.02609 18.3601 6.10435C17.575 7.14783 17.1825 8.43478 17.1825 9.96522C17.2539 9.93044 17.3431 9.91304 17.4501 9.91304C17.5572 9.91304 17.6464 9.91304 17.7178 9.91304C18.8597 9.91304 19.8232 10.2609 20.6083 10.9565C21.429 11.6174 21.8394 12.5391 21.8394 13.7217C21.8394 15.0087 21.4469 16.0522 20.6618 16.8522C19.8767 17.6174 18.8954 18 17.7178 18Z" fill="#00031E"/>
</svg>
