<svg width="174" height="15" viewBox="0 0 174 15" fill="none" xmlns="http://www.w3.org/2000/svg">
<path d="M172.716 4.21041L172.071 4.97487L172.716 4.21041ZM13.9665 14.9404C14.4859 15.1281 15.0591 14.8593 15.2469 14.3399C15.4346 13.8205 15.1657 13.2472 14.6463 13.0595L13.9665 14.9404ZM0.991425 10.8783C31.0414 11.136 75.692 11.1618 111.979 10.4015C130.119 10.0214 146.186 9.44458 157.298 8.60025C162.843 8.1789 167.2 7.68783 169.971 7.111C171.319 6.83033 172.434 6.50304 173.109 6.07621C173.427 5.87532 173.893 5.50081 173.985 4.88302C174.086 4.20126 173.676 3.7118 173.361 3.44595L172.071 4.97487C172.184 5.06971 171.956 4.93047 172.007 4.58873C172.048 4.31097 172.23 4.26629 172.041 4.3853C171.704 4.59828 170.917 4.8711 169.563 5.15299C166.93 5.7013 162.685 6.18521 157.147 6.606C146.092 7.44595 130.07 8.02201 111.937 8.40195C75.6776 9.16168 31.0486 9.13597 1.00857 8.87838L0.991425 10.8783ZM173.361 3.44595C172.948 3.09786 172.368 2.8368 171.74 2.62435C171.091 2.40464 170.294 2.20653 169.376 2.02582C167.537 1.66415 165.128 1.35698 162.256 1.09899C156.509 0.582597 148.823 0.255957 139.962 0.1028C122.235 -0.203596 99.7396 0.183365 78.4959 1.15021C57.2621 2.1166 37.2366 3.66415 24.4664 5.686C21.2716 6.19183 18.5137 6.72994 16.296 7.30056C14.1037 7.86461 12.3508 8.48172 11.2287 9.17979C10.6743 9.52475 10.1595 9.95821 9.87852 10.5197C9.55848 11.1593 9.60161 11.8453 9.9629 12.4535C10.2847 12.9951 10.8321 13.4367 11.4659 13.8136C12.1168 14.2007 12.9534 14.5743 13.9665 14.9404L14.6463 13.0595C13.6991 12.7172 12.9906 12.3934 12.4881 12.0946C11.9685 11.7856 11.7541 11.5528 11.6823 11.432C11.6537 11.3838 11.6617 11.3768 11.6629 11.4024C11.6642 11.4301 11.6551 11.4387 11.6671 11.4147C11.7054 11.3381 11.8546 11.1459 12.2852 10.878C13.1334 10.3503 14.6353 9.793 16.7943 9.23748C18.9279 8.68853 21.6178 8.16192 24.7792 7.6614C37.4337 5.65784 57.367 4.1139 78.5869 3.14814C99.797 2.18282 122.25 1.79696 139.928 2.1025C148.769 2.25531 156.399 2.58083 162.077 3.09097C164.919 3.34624 167.249 3.64593 168.99 3.98822C169.86 4.1595 170.563 4.33765 171.099 4.51892C171.657 4.70745 171.949 4.8721 172.071 4.97487L173.361 3.44595Z" fill="#A5FECB"/>
</svg>
