<svg width="38" height="38" viewBox="0 0 38 38" fill="none" xmlns="http://www.w3.org/2000/svg">
<mask id="mask0_32_1359" style="mask-type:alpha" maskUnits="userSpaceOnUse" x="5" y="4" width="29" height="29">
<rect x="5.09521" y="4.47644" width="28.35" height="28.35" rx="5.70069" fill="#D9D9D9"/>
</mask>
<g mask="url(#mask0_32_1359)">
<path d="M27.0416 4.66309H11.4988C8.06545 4.66309 5.28174 7.44679 5.28174 10.8802V26.423C5.28174 29.8564 8.06545 32.6401 11.4988 32.6401H20.2354V21.8207H16.5938V17.5853H20.2354V14.469C20.2354 10.8569 22.4441 8.88761 25.6676 8.88761C26.7541 8.8845 27.839 8.94045 28.9192 9.05081V12.8277H26.6997C24.9433 12.8277 24.6014 13.6577 24.6014 14.8825V17.5791H28.7979L28.2524 21.8145H24.5765V32.6401H27.0416C30.475 32.6401 33.2587 29.8564 33.2587 26.423V10.8802C33.2587 7.44679 30.475 4.66309 27.0416 4.66309Z" fill="#00031E"/>
</g>
</svg>
