<svg width="18" height="18" viewBox="0 0 18 18" fill="none" xmlns="http://www.w3.org/2000/svg">
<path d="M16.4226 0.325684C16.0104 0.325684 15.6151 0.489437 15.3236 0.780921C15.0321 1.0724 14.8684 1.46774 14.8684 1.87996C14.8684 2.29218 15.0321 2.68752 15.3236 2.979C15.6151 3.27048 16.0104 3.43424 16.4226 3.43424C16.8349 3.43424 17.2302 3.27048 17.5217 2.979C17.8132 2.68752 17.9769 2.29218 17.9769 1.87996C17.9769 1.46774 17.8132 1.0724 17.5217 0.780921C17.2302 0.489437 16.8349 0.325684 16.4226 0.325684ZM8.65127 1.87996C4.36613 1.87996 0.879883 5.3662 0.879883 9.65134C0.879883 13.9365 4.36613 17.4227 8.65127 17.4227C12.9364 17.4227 16.4226 13.9365 16.4226 9.65134C16.4226 5.3662 12.9364 1.87996 8.65127 1.87996ZM8.65127 4.98851C11.222 4.98851 13.3141 7.08057 13.3141 9.65134C13.3141 12.2221 11.222 14.3142 8.65127 14.3142C6.08049 14.3142 3.98844 12.2221 3.98844 9.65134C3.98844 7.08057 6.08049 4.98851 8.65127 4.98851Z" fill="white"/>
</svg>
