<svg width="38" height="38" viewBox="0 0 38 38" fill="none" xmlns="http://www.w3.org/2000/svg">
<mask id="mask0_32_1351" style="mask-type:alpha" maskUnits="userSpaceOnUse" x="4" y="4" width="29" height="29">
<rect x="4.47607" y="4.47632" width="28.35" height="28.35" rx="5.70069" fill="#D9D9D9"/>
</mask>
<g mask="url(#mask0_32_1351)">
<rect x="4.47607" y="4.47632" width="28.35" height="28.35" rx="5.70069" fill="#00031E"/>
<path d="M26.4226 9.32581C26.0104 9.32581 25.6151 9.48956 25.3236 9.78104C25.0321 10.0725 24.8684 10.4679 24.8684 10.8801C24.8684 11.2923 25.0321 11.6876 25.3236 11.9791C25.6151 12.2706 26.0104 12.4344 26.4226 12.4344C26.8349 12.4344 27.2302 12.2706 27.5217 11.9791C27.8132 11.6876 27.9769 11.2923 27.9769 10.8801C27.9769 10.4679 27.8132 10.0725 27.5217 9.78104C27.2302 9.48956 26.8349 9.32581 26.4226 9.32581ZM18.6513 10.8801C14.3661 10.8801 10.8799 14.3663 10.8799 18.6515C10.8799 22.9366 14.3661 26.4228 18.6513 26.4228C22.9364 26.4228 26.4226 22.9366 26.4226 18.6515C26.4226 14.3663 22.9364 10.8801 18.6513 10.8801ZM18.6513 13.9886C21.222 13.9886 23.3141 16.0807 23.3141 18.6515C23.3141 21.2222 21.222 23.3143 18.6513 23.3143C16.0805 23.3143 13.9884 21.2222 13.9884 18.6515C13.9884 16.0807 16.0805 13.9886 18.6513 13.9886Z" fill="white"/>
</g>
</svg>
