<svg width="18" height="18" viewBox="0 0 18 18" fill="none" xmlns="http://www.w3.org/2000/svg">
<path d="M3.90933 17.2001C4.33909 17.2001 4.68647 16.8527 4.68647 16.4229V6.32013C4.68647 5.89038 4.33909 5.54299 3.90933 5.54299H1.57792C1.14816 5.54299 0.800781 5.89038 0.800781 6.32013V16.4229C0.800781 16.8527 1.14816 17.2001 1.57792 17.2001H3.90933Z" fill="white"/>
<path d="M0.800781 2.04587C0.800781 3.1191 1.6704 3.98872 2.74363 3.98872C3.81685 3.98872 4.68647 3.1191 4.68647 2.04587C4.68647 0.972645 3.81685 0.103027 2.74363 0.103027C1.6704 0.103027 0.800781 0.972645 0.800781 2.04587Z" fill="white"/>
<path d="M17.1207 17.2001C17.5504 17.2001 17.8978 16.8527 17.8978 16.4229V10.2058C17.8978 7.63427 15.8065 5.54299 13.235 5.54299C12.0398 5.54299 10.9525 5.9984 10.1264 6.74056V6.32013C10.1264 5.89038 9.77906 5.54299 9.3493 5.54299H7.01789C6.58813 5.54299 6.24075 5.89038 6.24075 6.32013V16.4229C6.24075 16.8527 6.58813 17.2001 7.01789 17.2001H9.3493C9.77906 17.2001 10.1264 16.8527 10.1264 16.4229V10.5944C10.1264 9.52272 10.9976 8.65155 12.0693 8.65155C13.141 8.65155 14.0121 9.52272 14.0121 10.5944V16.4229C14.0121 16.8527 14.3595 17.2001 14.7893 17.2001H17.1207Z" fill="white"/>
</svg>
