<svg width="38" height="38" viewBox="0 0 38 38" fill="none" xmlns="http://www.w3.org/2000/svg">
<mask id="mask0_32_1365" style="mask-type:alpha" maskUnits="userSpaceOnUse" x="5" y="4" width="29" height="29">
<rect x="5.17383" y="4.47644" width="28.35" height="28.35" rx="5.70069" fill="#D9D9D9"/>
</mask>
<g mask="url(#mask0_32_1365)">
<path d="M29.0626 4.66309H9.63412C7.27784 4.66309 5.35986 6.58106 5.35986 8.93735V28.3658C5.35986 30.7221 7.27784 32.6401 9.63412 32.6401H29.0626C31.4189 32.6401 33.3368 30.7221 33.3368 28.3658V8.93735C33.3368 6.58106 31.4189 4.66309 29.0626 4.66309ZM14.6855 26.423C14.6855 26.8527 14.3381 27.2001 13.9084 27.2001H11.577C11.1472 27.2001 10.7998 26.8527 10.7998 26.423V16.3202C10.7998 15.8904 11.1472 15.543 11.577 15.543H13.9084C14.3381 15.543 14.6855 15.8904 14.6855 16.3202V26.423ZM12.7427 13.9887C11.6694 13.9887 10.7998 13.1191 10.7998 12.0459C10.7998 10.9727 11.6694 10.1031 12.7427 10.1031C13.8159 10.1031 14.6855 10.9727 14.6855 12.0459C14.6855 13.1191 13.8159 13.9887 12.7427 13.9887ZM27.8969 26.423C27.8969 26.8527 27.5495 27.2001 27.1197 27.2001H24.7883C24.3586 27.2001 24.0112 26.8527 24.0112 26.423V20.5944C24.0112 19.5227 23.14 18.6516 22.0683 18.6516C20.9967 18.6516 20.1255 19.5227 20.1255 20.5944V26.423C20.1255 26.8527 19.7781 27.2001 19.3484 27.2001H17.0169C16.5872 27.2001 16.2398 26.8527 16.2398 26.423V16.3202C16.2398 15.8904 16.5872 15.543 17.0169 15.543H19.3484C19.7781 15.543 20.1255 15.8904 20.1255 16.3202V16.7406C20.9516 15.9984 22.0388 15.543 23.234 15.543C25.8056 15.543 27.8969 17.6343 27.8969 20.2059V26.423Z" fill="#00031E"/>
</g>
</svg>
