<svg width="224" height="35" viewBox="0 0 224 35" fill="none" xmlns="http://www.w3.org/2000/svg">
<path d="M66.7598 26.0116C68.1508 26.0116 69.3481 25.7835 70.3515 25.3274C71.3548 24.8486 72.4038 24.096 73.4985 23.0698L76.0981 25.7379C73.5669 28.5429 70.4883 29.9453 66.8624 29.9453C63.2593 29.9453 60.2605 28.7823 57.8661 26.4563C55.4944 24.1302 54.3086 21.1885 54.3086 17.631C54.3086 14.0735 55.5172 11.1089 57.9345 8.73729C60.3745 6.36564 63.4417 5.17981 67.136 5.17981C70.8531 5.17981 73.9545 6.54807 76.4402 9.28459L73.8747 12.0895C72.7345 10.9949 71.6513 10.231 70.6251 9.79769C69.6217 9.36441 68.4359 9.14777 67.0676 9.14777C64.6504 9.14777 62.6208 9.93452 60.9789 11.508C59.337 13.0587 58.516 15.0541 58.516 17.4942C58.516 19.9114 59.3256 21.941 60.9447 23.5829C62.5866 25.202 64.5249 26.0116 66.7598 26.0116Z" fill="#00031E"/>
<path d="M94.8887 29.6717H91.3997V27.243C89.8946 29.0446 87.8764 29.9453 85.3451 29.9453C83.4524 29.9453 81.8789 29.4094 80.6246 28.3376C79.3932 27.2658 78.7775 25.8405 78.7775 24.0618C78.7775 22.2603 79.4388 20.9148 80.7615 20.0254C82.0841 19.1361 83.8742 18.6914 86.1319 18.6914H91.0918V18.0073C91.0918 15.59 89.7464 14.3814 87.0555 14.3814C85.3679 14.3814 83.612 14.9971 81.7877 16.2285L80.0773 13.8341C82.2893 12.0781 84.7978 11.2002 87.6028 11.2002C89.7464 11.2002 91.4909 11.7475 92.8364 12.8421C94.2046 13.9139 94.8887 15.6128 94.8887 17.9388V29.6717ZM91.0576 22.8988V21.3595H86.7476C83.9883 21.3595 82.6086 22.2261 82.6086 23.9592C82.6086 24.8486 82.9507 25.5327 83.6348 26.0116C84.3189 26.4677 85.2653 26.6957 86.4739 26.6957C87.7054 26.6957 88.7772 26.3536 89.6894 25.6695C90.6015 24.9854 91.0576 24.0618 91.0576 22.8988Z" fill="#00031E"/>
<path d="M112.844 24.2328C112.844 25.966 112.217 27.357 110.963 28.406C109.709 29.4322 108.101 29.9453 106.14 29.9453C104.817 29.9453 103.437 29.7059 102.001 29.227C100.587 28.7481 99.3327 28.0754 98.238 27.2088L100.085 24.2328C102.206 25.8291 104.258 26.6273 106.242 26.6273C107.109 26.6273 107.793 26.4335 108.295 26.0458C108.796 25.6353 109.047 25.1222 109.047 24.5065C109.047 23.5943 107.839 22.7734 105.421 22.0436C105.239 21.9752 105.102 21.9296 105.011 21.9068C101.225 20.8806 99.3327 19.1703 99.3327 16.7758C99.3327 15.0883 99.9826 13.7428 101.282 12.7395C102.605 11.7133 104.315 11.2002 106.413 11.2002C108.511 11.2002 110.495 11.8159 112.365 13.0473L110.929 15.8865C109.446 14.9059 107.839 14.4156 106.106 14.4156C105.193 14.4156 104.452 14.5866 103.882 14.9287C103.312 15.2479 103.027 15.7382 103.027 16.3995C103.027 16.9925 103.323 17.4257 103.916 17.6994C104.327 17.9046 104.897 18.0985 105.627 18.2809C106.379 18.4633 107.041 18.6458 107.611 18.8282C108.181 19.0106 108.728 19.2159 109.253 19.4439C109.8 19.672 110.381 19.9912 110.997 20.4017C112.229 21.2227 112.844 22.4997 112.844 24.2328Z" fill="#00031E"/>
<path d="M131.585 29.6717H128.096V27.243C126.59 29.0446 124.572 29.9453 122.041 29.9453C120.148 29.9453 118.575 29.4094 117.32 28.3376C116.089 27.2658 115.473 25.8405 115.473 24.0618C115.473 22.2603 116.135 20.9148 117.457 20.0254C118.78 19.1361 120.57 18.6914 122.828 18.6914H127.788V18.0073C127.788 15.59 126.442 14.3814 123.751 14.3814C122.064 14.3814 120.308 14.9971 118.483 16.2285L116.773 13.8341C118.985 12.0781 121.494 11.2002 124.299 11.2002C126.442 11.2002 128.187 11.7475 129.532 12.8421C130.9 13.9139 131.585 15.6128 131.585 17.9388V29.6717ZM127.753 22.8988V21.3595H123.443C120.684 21.3595 119.304 22.2261 119.304 23.9592C119.304 24.8486 119.647 25.5327 120.331 26.0116C121.015 26.4677 121.961 26.6957 123.17 26.6957C124.401 26.6957 125.473 26.3536 126.385 25.6695C127.297 24.9854 127.753 24.0618 127.753 22.8988Z" fill="#00031E"/>
<path d="M141.399 29.6717L134.079 11.4738H138.047L143.588 25.2248L149.13 11.4738H153.098L145.777 29.6717H141.399Z" fill="#00031E"/>
<path d="M172.741 22.2489H158.477C158.568 23.5715 159.173 24.6433 160.29 25.4643C161.407 26.2624 162.684 26.6615 164.121 26.6615C166.402 26.6615 168.135 25.9432 169.321 24.5065L171.51 26.901C169.549 28.9305 166.994 29.9453 163.847 29.9453C161.293 29.9453 159.116 29.1016 157.314 27.414C155.535 25.7037 154.646 23.4233 154.646 20.5727C154.646 17.6994 155.558 15.419 157.382 13.7314C159.207 12.0439 161.35 11.2002 163.813 11.2002C166.299 11.2002 168.408 11.9527 170.141 13.4578C171.875 14.9401 172.741 16.9925 172.741 19.615V22.2489ZM158.477 19.2387H168.91C168.91 17.7108 168.431 16.5364 167.473 15.7154C166.516 14.8945 165.33 14.484 163.916 14.484C162.525 14.484 161.271 14.9173 160.153 15.7838C159.036 16.6276 158.477 17.7792 158.477 19.2387Z" fill="#00031E"/>
<path d="M186.156 15.0655C184.263 15.0655 182.838 15.6812 181.88 16.9126C180.922 18.1441 180.443 19.7974 180.443 21.8726V29.6717H176.612V11.4738H180.443V15.1339C181.059 13.9937 181.891 13.0587 182.94 12.329C184.012 11.5992 185.141 11.223 186.327 11.2002L186.361 15.0655C186.293 15.0655 186.224 15.0655 186.156 15.0655Z" fill="#00031E"/>
<path d="M202.83 24.2328C202.83 25.966 202.203 27.357 200.949 28.406C199.695 29.4322 198.087 29.9453 196.126 29.9453C194.803 29.9453 193.423 29.7059 191.987 29.227C190.573 28.7481 189.319 28.0754 188.224 27.2088L190.071 24.2328C192.192 25.8291 194.244 26.6273 196.228 26.6273C197.095 26.6273 197.779 26.4335 198.281 26.0458C198.782 25.6353 199.033 25.1222 199.033 24.5065C199.033 23.5943 197.825 22.7734 195.407 22.0436C195.225 21.9752 195.088 21.9296 194.997 21.9068C191.211 20.8806 189.319 19.1703 189.319 16.7758C189.319 15.0883 189.968 13.7428 191.268 12.7395C192.591 11.7133 194.301 11.2002 196.399 11.2002C198.497 11.2002 200.481 11.8159 202.351 13.0473L200.915 15.8865C199.432 14.9059 197.825 14.4156 196.091 14.4156C195.179 14.4156 194.438 14.5866 193.868 14.9287C193.298 15.2479 193.013 15.7382 193.013 16.3995C193.013 16.9925 193.309 17.4257 193.902 17.6994C194.313 17.9046 194.883 18.0985 195.613 18.2809C196.365 18.4633 197.026 18.6458 197.596 18.8282C198.167 19.0106 198.714 19.2159 199.238 19.4439C199.786 19.672 200.367 19.9912 200.983 20.4017C202.214 21.2227 202.83 22.4997 202.83 24.2328Z" fill="#00031E"/>
<path d="M223.76 22.2489H209.496C209.587 23.5715 210.191 24.6433 211.309 25.4643C212.426 26.2624 213.703 26.6615 215.14 26.6615C217.42 26.6615 219.153 25.9432 220.339 24.5065L222.528 26.901C220.567 28.9305 218.013 29.9453 214.866 29.9453C212.312 29.9453 210.134 29.1016 208.333 27.414C206.554 25.7037 205.664 23.4233 205.664 20.5727C205.664 17.6994 206.577 15.419 208.401 13.7314C210.225 12.0439 212.369 11.2002 214.832 11.2002C217.317 11.2002 219.427 11.9527 221.16 13.4578C222.893 14.9401 223.76 16.9925 223.76 19.615V22.2489ZM209.496 19.2387H219.929C219.929 17.7108 219.45 16.5364 218.492 15.7154C217.534 14.8945 216.348 14.484 214.934 14.484C213.543 14.484 212.289 14.9173 211.172 15.7838C210.054 16.6276 209.496 17.7792 209.496 19.2387Z" fill="#00031E"/>
<path fill-rule="evenodd" clip-rule="evenodd" d="M0 17.4822V34.9643H21.6908H43.3817V17.4822L21.6908 0L0 17.4822ZM0 17.4822L3.55427 17.0776C12.717 16.0347 20.0993 9.08348 21.6908 0C23.2824 9.08348 30.6647 16.0347 39.8274 17.0776L43.3817 17.4822L39.8274 17.8867C30.6647 18.9296 23.2824 25.8808 21.6908 34.9643C20.0993 25.8808 12.717 18.9296 3.55427 17.8867L0 17.4822Z" fill="#00031E"/>
</svg>
