<svg width="38" height="38" viewBox="0 0 38 38" fill="none" xmlns="http://www.w3.org/2000/svg">
<mask id="mask0_32_1355" style="mask-type:alpha" maskUnits="userSpaceOnUse" x="5" y="4" width="29" height="29">
<rect x="5.01562" y="4.47644" width="28.35" height="28.35" rx="5.70069" fill="#D9D9D9"/>
</mask>
<g mask="url(#mask0_32_1355)">
<rect x="5.01562" y="4.47644" width="28.35" height="28.35" rx="5.70069" fill="#00031E"/>
<path d="M20.5139 22.9681V8.57996H23.4418C23.4418 10.9601 25.3606 12.8628 27.7706 12.8964L27.7277 15.774C26.0904 15.7512 24.6536 15.0975 23.4418 14.175V22.9681C23.4418 26.1297 20.8028 28.7234 17.5861 28.7234C14.3694 28.7234 11.7305 26.1297 11.7305 22.9681C11.7305 19.8066 14.3694 17.2129 17.5861 17.2129V20.0905C15.9514 20.0905 14.6583 21.3614 14.6583 22.9681C14.6583 24.5748 15.9514 25.8457 17.5861 25.8457C19.2208 25.8457 20.5139 24.5748 20.5139 22.9681Z" fill="white"/>
</g>
</svg>
