<svg width="18" height="15" viewBox="0 0 18 15" fill="none" xmlns="http://www.w3.org/2000/svg">
<path d="M16.0609 4.20262C16.0609 4.0467 16.057 3.89206 16.0506 3.73936C16.7471 3.23486 17.3521 2.60407 17.8295 1.8863C17.1884 2.17109 16.5016 2.36245 15.7787 2.45008C16.5164 2.00679 17.0828 1.30513 17.3489 0.470733C16.6595 0.88052 15.8947 1.17819 15.0822 1.33863C14.4314 0.642766 13.5042 0.208496 12.4778 0.208496C10.5062 0.208496 8.90831 1.81092 8.90831 3.78704C8.90831 4.06732 8.94053 4.33986 9.00174 4.6021C6.03594 4.45262 3.40583 3.02803 1.64491 0.863124C1.33757 1.39275 1.16232 2.00679 1.16232 2.6627C1.16232 3.90431 1.79117 4.99836 2.74992 5.64139C2.16423 5.6227 1.61463 5.46098 1.13332 5.19294V5.23804C1.13332 6.97255 2.36333 8.41711 3.99474 8.747C3.69642 8.83012 3.38071 8.87329 3.05532 8.87329C2.82466 8.87329 2.60108 8.85074 2.38266 8.80886C2.83819 10.2289 4.15518 11.2656 5.717 11.294C4.49666 12.254 2.95739 12.8249 1.28474 12.8249C0.995439 12.8249 0.712584 12.8088 0.433594 12.7753C2.01217 13.7914 3.88907 14.3835 5.9045 14.3835C12.4701 14.3835 16.0609 8.93063 16.0609 4.20262Z" fill="white"/>
</svg>
