<svg width="38" height="38" viewBox="0 0 38 38" fill="none" xmlns="http://www.w3.org/2000/svg">
<path d="M26.5411 4.47644H11.0775C7.52469 4.47644 4.63428 7.3675 4.63428 10.9203V26.382C4.63428 29.9354 7.52469 32.8264 11.0775 32.8264H26.5411C30.0939 32.8264 32.9843 29.9354 32.9843 26.3826V10.9196C32.9843 7.36685 30.0939 4.47644 26.5411 4.47644ZM26.0501 15.7391C26.0566 15.8918 26.0604 16.0465 26.0604 16.2024C26.0604 20.9304 22.4696 26.3833 15.904 26.3833C13.8886 26.3833 12.0117 25.7911 10.4331 24.775C10.7121 24.8085 10.995 24.8247 11.2843 24.8247C12.9569 24.8247 14.4962 24.2538 15.7165 23.2938C14.1547 23.2654 12.8377 22.2287 12.3822 20.8086C12.6006 20.8505 12.8242 20.873 13.0549 20.873C13.3803 20.873 13.696 20.8299 13.9943 20.7468C12.3629 20.4169 11.1329 18.9723 11.1329 17.2378C11.1329 17.2223 11.1329 17.2075 11.1329 17.1927C11.6142 17.4607 12.1638 17.6225 12.7495 17.6411C11.7907 16.9981 11.1619 15.9041 11.1619 14.6625C11.1619 14.0066 11.3371 13.3925 11.6445 12.8629C13.4054 15.0278 16.0355 16.4524 19.0013 16.6019C18.9401 16.3396 18.9079 16.0671 18.9079 15.7868C18.9079 13.8107 20.5058 12.2083 22.4774 12.2083C23.5038 12.2083 24.431 12.6425 25.0817 13.3384C25.8942 13.178 26.659 12.8803 27.3484 12.4705C27.0823 13.3049 26.516 14.0066 25.7782 14.4498C26.5011 14.3622 27.188 14.1709 27.8291 13.8861C27.3516 14.6038 26.7466 15.2346 26.0501 15.7391Z" fill="#00031E"/>
</svg>
