<svg width="38" height="38" viewBox="0 0 38 38" fill="none" xmlns="http://www.w3.org/2000/svg">
<path d="M33.6233 9.61506C33.2659 8.27838 32.2121 7.22458 30.8754 6.8671C28.4507 6.21741 18.7303 6.21741 18.7303 6.21741C18.7303 6.21741 9.00982 6.21741 6.58515 6.8671C5.24847 7.22458 4.19467 8.27838 3.83719 9.61506C3.1875 12.0397 3.1875 18.6516 3.1875 18.6516C3.1875 18.6516 3.1875 25.2635 3.83719 27.6882C4.19467 29.0249 5.24847 30.0787 6.58515 30.4361C9.00982 31.0858 18.7303 31.0858 18.7303 31.0858C18.7303 31.0858 28.4507 31.0858 30.8754 30.4361C32.2136 30.0787 33.2659 29.0249 33.6233 27.6882C34.273 25.2635 34.273 18.6516 34.273 18.6516C34.273 18.6516 34.273 12.0397 33.6233 9.61506ZM15.6217 24.0356V13.2676L24.9474 18.6516L15.6217 24.0356Z" fill="#00031E"/>
</svg>
