<svg width="20" height="20" viewBox="0 0 20 20" fill="none" xmlns="http://www.w3.org/2000/svg">
<g clip-path="url(#clip0_84_2529)">
<path fill-rule="evenodd" clip-rule="evenodd" d="M3.84615 0C2.99649 0 2.30769 0.688793 2.30769 1.53846V4.61538C2.30769 4.83348 2.35308 5.04098 2.43491 5.22895C2.32025 5.38129 2.23266 5.5567 2.18021 5.74905L0.0271047 13.6438L0 13.7431V13.8462V17.6923C0 18.1171 0.344396 18.4615 0.769231 18.4615H2.30769V19.2308C2.30769 19.6556 2.65209 20 3.07692 20C3.50176 20 3.84615 19.6556 3.84615 19.2308V18.4615H16.1538V19.2308C16.1538 19.6556 16.4982 20 16.9231 20C17.3479 20 17.6923 19.6556 17.6923 19.2308V18.4615H19.2308C19.6556 18.4615 20 18.1171 20 17.6923V13.8462V13.7431L19.9729 13.6438L17.8198 5.74905C17.7673 5.5567 17.6797 5.38129 17.5651 5.22896C17.6469 5.04099 17.6923 4.83349 17.6923 4.61538V1.53846C17.6923 0.688793 17.0035 0 16.1538 0H3.84615ZM3.66446 6.15385L3.84615 6.15385H5.38462C5.38462 6.57868 5.72901 6.92308 6.15385 6.92308H8.46154C8.88637 6.92308 9.23077 6.57868 9.23077 6.15385H10.7692C10.7692 6.57868 11.1136 6.92308 11.5385 6.92308H13.8462C14.271 6.92308 14.6154 6.57868 14.6154 6.15385H16.1538H16.3355L18.2237 13.0769H1.77635L3.66446 6.15385ZM14.6154 4.61538H16.1538V1.53846H3.84615V4.61538H5.38462V3.84615C5.38462 3.42132 5.72901 3.07692 6.15385 3.07692H8.46154C8.88637 3.07692 9.23077 3.42132 9.23077 3.84615V4.61538H10.7692V3.84615C10.7692 3.42132 11.1136 3.07692 11.5385 3.07692H13.8462C14.271 3.07692 14.6154 3.42132 14.6154 3.84615V4.61538ZM1.53846 14.6154H18.4615V16.9231H16.9231H3.07692H1.53846V14.6154Z" fill="#20BDFF"/>
</g>
<defs>
<clipPath id="clip0_84_2529">
<rect width="20" height="20" fill="white"/>
</clipPath>
</defs>
</svg>
