<svg width="482" height="15" viewBox="0 0 482 15" fill="none" xmlns="http://www.w3.org/2000/svg">
<path d="M1.79294 4.21041L2.0822 5.16766L1.79294 4.21041ZM443.994 14.9917C443.447 15.0626 442.945 14.6761 442.874 14.1284C442.803 13.5807 443.19 13.0792 443.737 13.0082L443.994 14.9917ZM481.003 10.8783C397.155 11.136 272.575 11.1618 171.342 10.4017C120.728 10.0217 75.943 9.44518 45.0032 8.60276C29.5374 8.18166 17.5139 7.6937 9.94833 7.12923C6.18583 6.8485 3.46046 6.54471 1.96438 6.20608C1.5885 6.12101 1.24744 6.0246 0.972358 5.909C0.835238 5.85138 0.682351 5.77582 0.540821 5.67389C0.410142 5.57978 0.206214 5.40438 0.087864 5.11931C-0.0530245 4.77995 -0.0166763 4.42184 0.140238 4.1317C0.272261 3.88758 0.463936 3.735 0.592034 3.64844C0.851073 3.47341 1.18332 3.34997 1.50367 3.25316L2.0822 5.16766C1.95516 5.20605 1.86068 5.2399 1.79339 5.26791C1.72235 5.29748 1.7022 5.31207 1.7118 5.30559C1.71797 5.30142 1.74155 5.28503 1.77305 5.25392C1.80412 5.22324 1.85385 5.16742 1.89945 5.08312C2.00969 4.87926 2.0406 4.6068 1.935 4.35245C1.85195 4.15238 1.72404 4.06135 1.70963 4.05097C1.68437 4.03278 1.688 4.04032 1.74715 4.06518C1.8646 4.11453 2.07511 4.18055 2.4059 4.25543C3.73653 4.55661 6.31966 4.85293 10.0971 5.13477C17.6116 5.69543 29.594 6.18246 45.0576 6.6035C75.9767 7.44535 120.745 8.02176 171.357 8.40176C272.58 9.16174 397.152 9.13597 480.997 8.87835L481.003 10.8783ZM1.50367 3.25316C3.12407 2.7635 6.61908 2.35935 11.5829 2.0095C16.5954 1.65622 23.2236 1.3523 31.2001 1.0955C47.1549 0.581827 68.5362 0.255676 93.2406 0.102669C142.651 -0.203354 205.378 0.183127 264.622 1.1493C323.862 2.11542 379.635 3.6614 415.133 5.67531C432.846 6.68025 445.604 7.80568 451.198 9.05284C451.906 9.21063 452.519 9.37454 453.025 9.54673C453.515 9.71377 453.967 9.90932 454.309 10.1542C454.613 10.372 455.12 10.8475 455.022 11.5833C454.935 12.2316 454.419 12.6091 454.105 12.799C453.395 13.2269 452.179 13.5904 450.575 13.9321C448.928 14.2831 446.742 14.6358 443.994 14.9917L443.737 13.0082C446.46 12.6556 448.586 12.311 450.158 11.976C451.773 11.6319 452.683 11.321 453.072 11.0864C453.306 10.9451 453.083 10.9944 453.039 11.3175C452.984 11.7281 453.286 11.8815 453.145 11.7802C453.041 11.7061 452.808 11.5857 452.38 11.4399C451.967 11.2993 451.43 11.1536 450.763 11.0049C445.361 9.8006 432.782 8.67985 415.019 7.67209C379.564 5.66059 323.824 4.11508 264.589 3.14904C205.357 2.18306 142.646 1.79672 93.253 2.10263C68.5557 2.25559 47.1941 2.5816 31.2644 3.09446C23.2986 3.35092 16.6992 3.65386 11.7235 4.00455C6.69931 4.35866 3.44579 4.7556 2.0822 5.16766L1.50367 3.25316Z" fill="#A5FECB"/>
</svg>
