<svg width="250" height="15" viewBox="0 0 250 15" fill="none" xmlns="http://www.w3.org/2000/svg">
<path d="M1.40969 4.21041L1.91455 5.07361L1.40969 4.21041ZM230.057 14.97C229.521 15.1042 228.978 14.7788 228.844 14.2431C228.71 13.7074 229.035 13.1643 229.571 13.03L230.057 14.97ZM249.006 10.8783C205.682 11.136 141.31 11.1618 88.9996 10.4016C62.8471 10.0216 39.6967 9.44494 23.6964 8.60174C15.7041 8.18055 9.46316 7.69133 5.51883 7.12173C3.57963 6.84169 2.08129 6.52795 1.21106 6.14672C0.985531 6.04791 0.753258 5.92421 0.554911 5.7629C0.364657 5.60816 0.113452 5.34326 0.028155 4.94561C-0.066473 4.50445 0.0881209 4.12593 0.284105 3.86961C0.463216 3.63536 0.697916 3.46823 0.904827 3.34721L1.91455 5.07361C1.81312 5.13293 1.8277 5.14353 1.87289 5.08442C1.93496 5.00325 2.04183 4.79729 1.98367 4.52615C1.95896 4.41092 1.91218 4.32822 1.87724 4.27952C1.84364 4.23268 1.81702 4.21142 1.81685 4.21128C1.81586 4.21048 1.82928 4.22133 1.86455 4.24147C1.89911 4.2612 1.94781 4.28597 2.0136 4.3148C2.60383 4.57337 3.84822 4.85973 5.80468 5.14226C9.65167 5.6978 15.8138 6.18356 23.8017 6.60451C39.7618 7.4456 62.8804 8.02186 89.0287 8.40183C141.32 9.16171 205.677 9.13597 248.994 8.87836L249.006 10.8783ZM0.904827 3.34721C1.4258 3.0425 2.1767 2.80292 3.05005 2.59806C3.94713 2.38764 5.06211 2.19448 6.36902 2.0162C8.98427 1.65944 12.429 1.35419 16.5578 1.09691C24.8189 0.582138 35.8798 0.25579 48.6489 0.102722C74.1902 -0.203452 106.61 0.183223 137.228 1.14967C167.839 2.1159 196.678 3.66251 215.048 5.67968C219.642 6.18414 223.594 6.71934 226.762 7.28457C229.906 7.84571 232.351 8.44855 233.886 9.11071C234.623 9.42872 235.321 9.82953 235.72 10.3821C235.94 10.6867 236.094 11.0743 236.063 11.5195C236.033 11.9554 235.834 12.3159 235.597 12.5933C235.151 13.1135 234.414 13.5239 233.554 13.8785C232.66 14.2473 231.494 14.6097 230.057 14.97L229.571 13.03C230.96 12.6817 232.023 12.3467 232.791 12.0296C233.595 11.6983 233.956 11.4344 234.078 11.2922C234.124 11.2384 234.076 11.2706 234.068 11.3813C234.06 11.5014 234.108 11.5668 234.098 11.5523C234.036 11.4668 233.777 11.2419 233.094 10.9471C231.788 10.3835 229.54 9.8119 226.41 9.25347C223.304 8.69913 219.401 8.16962 214.83 7.66773C196.541 5.65948 167.766 4.1146 137.165 3.14867C106.57 2.18296 74.1799 1.79681 48.6728 2.10258C35.9177 2.25548 24.8948 2.58129 16.6822 3.09304C12.5742 3.34903 9.18461 3.65063 6.63934 3.99785C5.366 4.17155 4.31916 4.35466 3.50678 4.54521C2.67067 4.74134 2.16444 4.92745 1.91455 5.07361L0.904827 3.34721Z" fill="#A5FECB"/>
</svg>
