<svg width="642" height="33" viewBox="0 0 642 33" fill="none" xmlns="http://www.w3.org/2000/svg">
<path d="M347 22.7526L345.688 23.1337C323.745 29.5046 300.255 27.8976 279.384 18.598L271.071 14.894C249.91 5.46477 225.638 6.00752 204.919 16.3733V16.3733C183.911 26.8838 159.267 27.2878 137.925 17.4716L135.813 16.5C113.136 6.06961 86.6439 6.65199 64.3212 17.8202V17.8202C45.0195 27.4769 22.4701 29.4237 1.85949 23.0197L1 22.7526" stroke="#20BDFF" stroke-width="2" stroke-linecap="round" stroke-linejoin="round"/>
<path d="M641 22.7526L639.692 23.1327C617.775 29.5038 594.308 27.897 573.464 18.598L565.162 14.8946C544.027 5.46605 519.778 6.00869 499.086 16.3733V16.3733C478.105 26.8825 453.484 27.2865 432.17 17.4712L430.061 16.5C407.413 6.07081 381.253 6.50004 358.96 17.6666L357.456 18.4201C338.706 27.8118 317.16 29.9933 296.908 24.5504L293 23.5" stroke="#20BDFF" stroke-width="2" stroke-linecap="round" stroke-linejoin="round"/>
</svg>
