<svg width="116" height="10" viewBox="0 0 116 10" fill="none" xmlns="http://www.w3.org/2000/svg">
<path d="M1.18833 2.97564L1.80482 3.76299L1.18833 2.97564ZM106.499 9.94803C105.975 10.1237 105.408 9.8417 105.233 9.31811C105.057 8.79451 105.339 8.22763 105.863 8.05193L106.499 9.94803ZM115.008 7.46356C95.0898 7.62214 65.4929 7.63806 41.4387 7.17011C29.415 6.9362 18.7594 6.58111 11.3869 6.06098C7.71068 5.80163 4.80785 5.49854 2.95309 5.13997C2.06253 4.96781 1.27559 4.75938 0.77558 4.46614C0.559314 4.3393 0.107568 4.03299 0.0153126 3.45721C-0.0900476 2.79964 0.341629 2.36852 0.57183 2.18828L1.80482 3.76299C1.75154 3.80471 2.06196 3.58912 1.99012 3.14079C1.9314 2.77426 1.66796 2.67092 1.78737 2.74095C1.9587 2.84143 2.43253 3.0023 3.33271 3.17633C5.05946 3.51015 7.85804 3.80706 11.5276 4.06594C18.8465 4.58229 29.4597 4.93669 41.4776 5.17048C65.5063 5.63794 95.0831 5.62213 114.992 5.46363L115.008 7.46356ZM0.57183 2.18828C0.894281 1.9358 1.32355 1.76168 1.74774 1.62848C2.19439 1.48822 2.73513 1.36374 3.3505 1.25136C4.58261 1.02635 6.18989 0.836388 8.09703 0.677294C11.9157 0.358738 17.0168 0.157592 22.8926 0.0632982C34.6484 -0.125359 49.564 0.112907 63.6485 0.708074C77.7239 1.30286 91.009 2.25564 99.4885 3.50214C101.61 3.81408 103.448 4.14668 104.929 4.50061C106.385 4.84849 107.584 5.23619 108.371 5.69032C108.753 5.91105 109.165 6.21859 109.403 6.65925C109.531 6.89692 109.609 7.17658 109.593 7.4827C109.578 7.78595 109.473 8.05245 109.332 8.27296C109.068 8.68598 108.642 8.99219 108.208 9.23178C107.753 9.48281 107.179 9.71963 106.499 9.94803L105.863 8.05193C106.481 7.84434 106.931 7.652 107.241 7.48093C107.572 7.29843 107.651 7.18964 107.647 7.19501C107.637 7.21169 107.601 7.2762 107.596 7.37933C107.591 7.48534 107.62 7.56676 107.642 7.60809C107.668 7.65608 107.641 7.57857 107.37 7.42215C106.851 7.12198 105.892 6.78697 104.464 6.44588C103.062 6.11084 101.288 5.78823 99.1976 5.48088C90.8258 4.2502 77.6266 3.30053 63.5641 2.70629C49.5106 2.11244 34.6346 1.87512 22.9247 2.06304C17.0675 2.15704 12.0172 2.35722 8.26329 2.67037C6.38414 2.82713 4.84986 3.01062 3.7098 3.21882C3.13908 3.32305 2.68608 3.43011 2.34693 3.53661C1.98532 3.65016 1.83672 3.73802 1.80482 3.76299L0.57183 2.18828Z" fill="#A5FECB"/>
</svg>
