<svg width="274" height="15" viewBox="0 0 274 15" fill="none" xmlns="http://www.w3.org/2000/svg">
<path d="M272 4.11528L271.54 5.00303L272 4.11528ZM21.7831 14.5909C22.3222 14.7107 22.8564 14.3708 22.9762 13.8317C23.096 13.2925 22.7561 12.7584 22.2169 12.6386L21.7831 14.5909ZM0.994728 10.6152C48.4144 10.8653 118.871 10.8903 176.125 10.1527C204.75 9.78391 230.086 9.22439 247.595 8.40637C256.343 7.99769 263.165 7.52328 267.473 6.97183C269.596 6.70004 271.212 6.39804 272.14 6.03755C272.379 5.9449 272.622 5.82992 272.83 5.68008C273.02 5.5428 273.312 5.28248 273.414 4.86034C273.532 4.3718 273.332 3.96755 273.12 3.72087C272.926 3.49588 272.676 3.33947 272.46 3.22752L271.54 5.00303C271.661 5.06608 271.653 5.08213 271.605 5.0271C271.539 4.95037 271.392 4.71357 271.47 4.39001C271.532 4.13284 271.692 4.03502 271.66 4.0578C271.646 4.06803 271.577 4.11066 271.416 4.17322C270.746 4.43359 269.36 4.71391 267.219 4.98802C262.998 5.52837 256.245 6.00005 247.502 6.40855C230.028 7.2249 204.721 7.78413 176.1 8.15285C118.862 8.89023 48.4189 8.86525 1.00527 8.61527L0.994728 10.6152ZM272.46 3.22752C271.91 2.94219 271.109 2.71403 270.158 2.51638C269.184 2.3139 267.971 2.12736 266.544 1.95478C263.688 1.60946 259.924 1.31359 255.407 1.06405C246.369 0.564809 234.267 0.248181 220.292 0.099665C192.339 -0.197399 156.857 0.17777 123.347 1.11551C89.8428 2.05308 58.2829 3.5537 38.1843 5.51028C33.1583 5.99956 28.8378 6.51839 25.3769 7.06591C21.9375 7.61003 19.2793 8.19233 17.6193 8.82734C16.8269 9.13045 16.0795 9.51002 15.6477 10.0407C15.4072 10.3362 15.2172 10.7385 15.2547 11.2186C15.2911 11.6839 15.5282 12.0499 15.7828 12.3133C16.2621 12.8093 17.0509 13.1992 17.9803 13.539C18.9484 13.893 20.2149 14.2425 21.7831 14.5909L22.2169 12.6386C20.6913 12.2995 19.5194 11.9723 18.6671 11.6607C17.7762 11.3349 17.3629 11.0704 17.2211 10.9236C17.1651 10.8656 17.237 10.9131 17.2487 11.0628C17.2615 11.2274 17.1875 11.3171 17.1989 11.3031C17.271 11.2145 17.5715 10.9869 18.3338 10.6953C19.7831 10.1409 22.2617 9.58361 25.6894 9.04134C29.0957 8.50246 33.3729 7.98812 38.3781 7.50087C58.4045 5.55132 89.9071 4.05206 123.403 3.11473C156.893 2.17756 192.348 1.80281 220.271 2.09955C234.233 2.24794 246.302 2.56414 255.296 3.06101C259.795 3.30953 263.511 3.60253 266.304 3.94031C267.701 4.10929 268.853 4.28786 269.751 4.47449C270.672 4.66594 271.246 4.85086 271.54 5.00303L272.46 3.22752Z" fill="#A5FECB"/>
</svg>
