<svg width="164" height="26" viewBox="0 0 164 26" fill="none" xmlns="http://www.w3.org/2000/svg">
<path d="M48.8778 19.0442C49.8962 19.0442 50.7728 18.8772 51.5074 18.5433C52.242 18.1927 53.01 17.6417 53.8114 16.8904L55.7148 18.8438C53.8615 20.8975 51.6076 21.9243 48.9529 21.9243C46.3149 21.9243 44.1194 21.0728 42.3663 19.3698C40.6299 17.6668 39.7617 15.513 39.7617 12.9084C39.7617 10.3038 40.6466 8.13333 42.4164 6.39694C44.2029 4.66055 46.4485 3.79236 49.1532 3.79236C51.8747 3.79236 54.1454 4.79412 55.9652 6.79765L54.0869 8.85126C53.2521 8.04985 52.4591 7.49053 51.7077 7.17331C50.9731 6.85608 50.1049 6.69747 49.1032 6.69747C47.3334 6.69747 45.8474 7.27348 44.6453 8.42551C43.4432 9.56084 42.8421 11.0217 42.8421 12.8082C42.8421 14.578 43.4348 16.0639 44.6203 17.2661C45.8224 18.4515 47.2415 19.0442 48.8778 19.0442Z" fill="#00031E"/>
<path d="M69.4722 21.7239H66.9177V19.9458C65.8158 21.2648 64.3382 21.9243 62.4849 21.9243C61.0991 21.9243 59.9471 21.5319 59.0288 20.7472C58.1272 19.9625 57.6764 18.919 57.6764 17.6167C57.6764 16.2977 58.1606 15.3126 59.129 14.6615C60.0974 14.0103 61.408 13.6848 63.0609 13.6848H66.6923V13.1839C66.6923 11.4141 65.7072 10.5292 63.7371 10.5292C62.5016 10.5292 61.216 10.98 59.8803 11.8816L58.6281 10.1285C60.2476 8.84291 62.0842 8.20011 64.1378 8.20011C65.7072 8.20011 66.9845 8.60082 67.9695 9.40223C68.9713 10.1869 69.4722 11.4308 69.4722 13.1338V21.7239ZM66.6673 16.7652V15.6382H63.5117C61.4915 15.6382 60.4814 16.2726 60.4814 17.5415C60.4814 18.1927 60.7318 18.6936 61.2327 19.0442C61.7336 19.3781 62.4265 19.5451 63.3114 19.5451C64.2129 19.5451 64.9977 19.2946 65.6655 18.7938C66.3333 18.2929 66.6673 17.6167 66.6673 16.7652Z" fill="#00031E"/>
<path d="M82.6182 17.7419C82.6182 19.0108 82.159 20.0293 81.2407 20.7973C80.3225 21.5486 79.1454 21.9243 77.7095 21.9243C76.7412 21.9243 75.7311 21.7489 74.6792 21.3983C73.644 21.0477 72.7258 20.5552 71.9244 19.9207L73.2767 17.7419C74.8295 18.9106 76.3321 19.495 77.7847 19.495C78.4191 19.495 78.92 19.3531 79.2873 19.0692C79.6546 18.7687 79.8383 18.393 79.8383 17.9423C79.8383 17.2744 78.9534 16.6734 77.1836 16.1391C77.05 16.089 76.9499 16.0556 76.8831 16.0389C74.1115 15.2876 72.7258 14.0354 72.7258 12.2823C72.7258 11.0468 73.2016 10.0617 74.1533 9.3271C75.1216 8.57577 76.3739 8.20011 77.9099 8.20011C79.4459 8.20011 80.8985 8.65091 82.2676 9.55249L81.2157 11.6311C80.1305 10.9132 78.9534 10.5543 77.6845 10.5543C77.0166 10.5543 76.474 10.6795 76.0566 10.9299C75.6392 11.1637 75.4305 11.5226 75.4305 12.0068C75.4305 12.4409 75.6476 12.7581 76.0817 12.9585C76.3822 13.1087 76.7996 13.2507 77.3339 13.3842C77.8848 13.5178 78.369 13.6514 78.7864 13.7849C79.2038 13.9185 79.6045 14.0688 79.9885 14.2357C80.3892 14.4027 80.815 14.6364 81.2658 14.937C82.1674 15.538 82.6182 16.473 82.6182 17.7419Z" fill="#00031E"/>
<path d="M96.3388 21.7239H93.7843V19.9458C92.6824 21.2648 91.2048 21.9243 89.3515 21.9243C87.9657 21.9243 86.8137 21.5319 85.8954 20.7472C84.9938 19.9625 84.543 18.919 84.543 17.6167C84.543 16.2977 85.0272 15.3126 85.9956 14.6615C86.964 14.0103 88.2746 13.6848 89.9275 13.6848H93.5589V13.1839C93.5589 11.4141 92.5738 10.5292 90.6037 10.5292C89.3682 10.5292 88.0826 10.98 86.7469 11.8816L85.4947 10.1285C87.1142 8.84291 88.9508 8.20011 91.0044 8.20011C92.5738 8.20011 93.8511 8.60082 94.8361 9.40223C95.8379 10.1869 96.3388 11.4308 96.3388 13.1338V21.7239ZM93.5339 16.7652V15.6382H90.3783C88.3581 15.6382 87.348 16.2726 87.348 17.5415C87.348 18.1927 87.5984 18.6936 88.0993 19.0442C88.6002 19.3781 89.2931 19.5451 90.178 19.5451C91.0795 19.5451 91.8643 19.2946 92.5321 18.7938C93.1999 18.2929 93.5339 17.6167 93.5339 16.7652Z" fill="#00031E"/>
<path d="M103.524 21.7239L98.1649 8.40047H101.07L105.127 18.4682L109.184 8.40047H112.089L106.73 21.7239H103.524Z" fill="#00031E"/>
<path d="M126.471 16.2893H116.028C116.095 17.2577 116.537 18.0424 117.355 18.6435C118.173 19.2278 119.108 19.52 120.16 19.52C121.83 19.52 123.099 18.9941 123.967 17.9423L125.57 19.6953C124.134 21.1813 122.264 21.9243 119.96 21.9243C118.09 21.9243 116.495 21.3065 115.176 20.071C113.874 18.8188 113.223 17.1492 113.223 15.0622C113.223 12.9585 113.891 11.2889 115.227 10.0534C116.562 8.81787 118.132 8.20011 119.935 8.20011C121.755 8.20011 123.299 8.75108 124.568 9.85302C125.837 10.9383 126.471 12.4409 126.471 14.361V16.2893ZM116.028 14.0855H123.666C123.666 12.9668 123.316 12.107 122.615 11.5059C121.913 10.9049 121.045 10.6043 120.01 10.6043C118.991 10.6043 118.073 10.9216 117.255 11.556C116.437 12.1738 116.028 13.0169 116.028 14.0855Z" fill="#00031E"/>
<path d="M136.293 11.0301C134.907 11.0301 133.863 11.4809 133.162 12.3825C132.461 13.2841 132.11 14.4945 132.11 16.0139V21.7239H129.305V8.40047H132.11V11.0802C132.561 10.2454 133.171 9.56084 133.939 9.02657C134.723 8.49229 135.55 8.21681 136.418 8.20011L136.443 11.0301C136.393 11.0301 136.343 11.0301 136.293 11.0301Z" fill="#00031E"/>
<path d="M148.501 17.7419C148.501 19.0108 148.042 20.0293 147.123 20.7973C146.205 21.5486 145.028 21.9243 143.592 21.9243C142.624 21.9243 141.614 21.7489 140.562 21.3983C139.527 21.0477 138.608 20.5552 137.807 19.9207L139.159 17.7419C140.712 18.9106 142.215 19.495 143.667 19.495C144.302 19.495 144.803 19.3531 145.17 19.0692C145.537 18.7687 145.721 18.393 145.721 17.9423C145.721 17.2744 144.836 16.6734 143.066 16.1391C142.933 16.089 142.832 16.0556 142.766 16.0389C139.994 15.2876 138.608 14.0354 138.608 12.2823C138.608 11.0468 139.084 10.0617 140.036 9.3271C141.004 8.57577 142.256 8.20011 143.792 8.20011C145.328 8.20011 146.781 8.65091 148.15 9.55249L147.098 11.6311C146.013 10.9132 144.836 10.5543 143.567 10.5543C142.899 10.5543 142.357 10.6795 141.939 10.9299C141.522 11.1637 141.313 11.5226 141.313 12.0068C141.313 12.4409 141.53 12.7581 141.964 12.9585C142.265 13.1087 142.682 13.2507 143.216 13.3842C143.767 13.5178 144.252 13.6514 144.669 13.7849C145.086 13.9185 145.487 14.0688 145.871 14.2357C146.272 14.4027 146.698 14.6364 147.148 14.937C148.05 15.538 148.501 16.473 148.501 17.7419Z" fill="#00031E"/>
<path d="M163.824 16.2893H153.381C153.448 17.2577 153.89 18.0424 154.708 18.6435C155.526 19.2278 156.461 19.52 157.513 19.52C159.183 19.52 160.452 18.9941 161.32 17.9423L162.923 19.6953C161.487 21.1813 159.617 21.9243 157.313 21.9243C155.443 21.9243 153.848 21.3065 152.529 20.071C151.227 18.8188 150.576 17.1492 150.576 15.0622C150.576 12.9585 151.244 11.2889 152.579 10.0534C153.915 8.81787 155.484 8.20011 157.288 8.20011C159.107 8.20011 160.652 8.75108 161.921 9.85302C163.19 10.9383 163.824 12.4409 163.824 14.361V16.2893ZM153.381 14.0855H161.019C161.019 12.9668 160.669 12.107 159.967 11.5059C159.266 10.9049 158.398 10.6043 157.363 10.6043C156.344 10.6043 155.426 10.9216 154.608 11.556C153.79 12.1738 153.381 13.0169 153.381 14.0855Z" fill="#00031E"/>
<path fill-rule="evenodd" clip-rule="evenodd" d="M0 12.7994V25.5989L15.8808 25.5989L31.7616 25.5989V12.7994L15.8808 0L0 12.7994ZM0 12.7994L2.60224 12.5033C9.31065 11.7397 14.7155 6.65041 15.8808 0C17.046 6.65041 22.4509 11.7397 29.1593 12.5033L31.7616 12.7994L29.1593 13.0956C22.4509 13.8592 17.046 18.9485 15.8808 25.5989C14.7155 18.9485 9.31065 13.8592 2.60224 13.0956L0 12.7994Z" fill="url(#paint0_linear_84_3027)"/>
<defs>
<linearGradient id="paint0_linear_84_3027" x1="0" y1="19.5703" x2="36.6117" y2="19.5703" gradientUnits="userSpaceOnUse">
<stop stop-color="#5433FF"/>
<stop offset="0.5" stop-color="#20BDFF"/>
<stop offset="1" stop-color="#A5FECB"/>
</linearGradient>
</defs>
</svg>
