<svg width="164" height="26" viewBox="0 0 164 26" fill="none" xmlns="http://www.w3.org/2000/svg">
<path d="M48.8778 19.0443C49.8962 19.0443 50.7728 18.8774 51.5074 18.5434C52.242 18.1928 53.01 17.6418 53.8114 16.8905L55.7148 18.844C53.8615 20.8976 51.6076 21.9244 48.9529 21.9244C46.3149 21.9244 44.1194 21.0729 42.3663 19.3699C40.6299 17.6669 39.7617 15.5131 39.7617 12.9085C39.7617 10.3039 40.6466 8.13345 42.4164 6.39706C44.2029 4.66067 46.4485 3.79248 49.1532 3.79248C51.8747 3.79248 54.1454 4.79424 55.9652 6.79777L54.0869 8.85138C53.2521 8.04997 52.4591 7.49065 51.7077 7.17343C50.9731 6.8562 50.1049 6.69759 49.1032 6.69759C47.3334 6.69759 45.8474 7.2736 44.6453 8.42563C43.4432 9.56096 42.8421 11.0219 42.8421 12.8083C42.8421 14.5781 43.4348 16.0641 44.6203 17.2662C45.8224 18.4516 47.2415 19.0443 48.8778 19.0443Z" fill="white"/>
<path d="M69.4722 21.724H66.9177V19.9459C65.8158 21.2649 64.3382 21.9244 62.4849 21.9244C61.0991 21.9244 59.9471 21.532 59.0288 20.7473C58.1272 19.9626 57.6764 18.9191 57.6764 17.6168C57.6764 16.2978 58.1606 15.3127 59.129 14.6616C60.0974 14.0105 61.408 13.6849 63.0609 13.6849H66.6923V13.184C66.6923 11.4142 65.7072 10.5293 63.7371 10.5293C62.5016 10.5293 61.216 10.9801 59.8803 11.8817L58.6281 10.1286C60.2476 8.84303 62.0842 8.20024 64.1378 8.20024C65.7072 8.20024 66.9845 8.60094 67.9695 9.40235C68.9713 10.1871 69.4722 11.4309 69.4722 13.1339V21.724ZM66.6673 16.7653V15.6383H63.5117C61.4915 15.6383 60.4814 16.2728 60.4814 17.5417C60.4814 18.1928 60.7318 18.6937 61.2327 19.0443C61.7336 19.3782 62.4265 19.5452 63.3114 19.5452C64.2129 19.5452 64.9977 19.2948 65.6655 18.7939C66.3333 18.293 66.6673 17.6168 66.6673 16.7653Z" fill="white"/>
<path d="M82.6182 17.742C82.6182 19.0109 82.159 20.0294 81.2407 20.7974C80.3225 21.5487 79.1454 21.9244 77.7095 21.9244C76.7412 21.9244 75.7311 21.7491 74.6792 21.3985C73.644 21.0478 72.7258 20.5553 71.9244 19.9209L73.2767 17.742C74.8295 18.9107 76.3321 19.4951 77.7847 19.4951C78.4191 19.4951 78.92 19.3532 79.2873 19.0694C79.6546 18.7688 79.8383 18.3932 79.8383 17.9424C79.8383 17.2745 78.9534 16.6735 77.1836 16.1392C77.05 16.0891 76.9499 16.0557 76.8831 16.039C74.1115 15.2877 72.7258 14.0355 72.7258 12.2824C72.7258 11.0469 73.2016 10.0618 74.1533 9.32722C75.1216 8.5759 76.3739 8.20024 77.9099 8.20024C79.4459 8.20024 80.8985 8.65103 82.2676 9.55261L81.2157 11.6313C80.1305 10.9133 78.9534 10.5544 77.6845 10.5544C77.0166 10.5544 76.474 10.6796 76.0566 10.93C75.6392 11.1638 75.4305 11.5227 75.4305 12.0069C75.4305 12.441 75.6476 12.7583 76.0817 12.9586C76.3822 13.1089 76.7996 13.2508 77.3339 13.3844C77.8848 13.5179 78.369 13.6515 78.7864 13.7851C79.2038 13.9186 79.6045 14.0689 79.9885 14.2359C80.3892 14.4028 80.815 14.6366 81.2658 14.9371C82.1674 15.5381 82.6182 16.4731 82.6182 17.742Z" fill="white"/>
<path d="M96.3388 21.724H93.7843V19.9459C92.6824 21.2649 91.2048 21.9244 89.3515 21.9244C87.9657 21.9244 86.8137 21.532 85.8954 20.7473C84.9938 19.9626 84.543 18.9191 84.543 17.6168C84.543 16.2978 85.0272 15.3127 85.9956 14.6616C86.964 14.0105 88.2746 13.6849 89.9275 13.6849H93.5589V13.184C93.5589 11.4142 92.5738 10.5293 90.6037 10.5293C89.3682 10.5293 88.0826 10.9801 86.7469 11.8817L85.4947 10.1286C87.1142 8.84303 88.9508 8.20024 91.0044 8.20024C92.5738 8.20024 93.8511 8.60094 94.8361 9.40235C95.8379 10.1871 96.3388 11.4309 96.3388 13.1339V21.724ZM93.5339 16.7653V15.6383H90.3783C88.3581 15.6383 87.348 16.2728 87.348 17.5417C87.348 18.1928 87.5984 18.6937 88.0993 19.0443C88.6002 19.3782 89.2931 19.5452 90.178 19.5452C91.0795 19.5452 91.8643 19.2948 92.5321 18.7939C93.1999 18.293 93.5339 17.6168 93.5339 16.7653Z" fill="white"/>
<path d="M103.524 21.724L98.1649 8.40059H101.07L105.127 18.4683L109.184 8.40059H112.089L106.73 21.724H103.524Z" fill="white"/>
<path d="M126.471 16.2895H116.028C116.095 17.2578 116.537 18.0426 117.355 18.6436C118.173 19.228 119.108 19.5202 120.16 19.5202C121.83 19.5202 123.099 18.9942 123.967 17.9424L125.57 19.6955C124.134 21.1814 122.264 21.9244 119.96 21.9244C118.09 21.9244 116.495 21.3066 115.176 20.0711C113.874 18.8189 113.223 17.1493 113.223 15.0623C113.223 12.9586 113.891 11.289 115.227 10.0535C116.562 8.81799 118.132 8.20024 119.935 8.20024C121.755 8.20024 123.299 8.7512 124.568 9.85314C125.837 10.9384 126.471 12.441 126.471 14.3611V16.2895ZM116.028 14.0856H123.666C123.666 12.967 123.316 12.1071 122.615 11.5061C121.913 10.905 121.045 10.6045 120.01 10.6045C118.991 10.6045 118.073 10.9217 117.255 11.5561C116.437 12.1739 116.028 13.017 116.028 14.0856Z" fill="white"/>
<path d="M136.293 11.0302C134.907 11.0302 133.863 11.481 133.162 12.3826C132.461 13.2842 132.11 14.4946 132.11 16.014V21.724H129.305V8.40059H132.11V11.0803C132.561 10.2455 133.171 9.56096 133.939 9.02669C134.723 8.49242 135.55 8.21693 136.418 8.20024L136.443 11.0302C136.393 11.0302 136.343 11.0302 136.293 11.0302Z" fill="white"/>
<path d="M148.501 17.742C148.501 19.0109 148.042 20.0294 147.123 20.7974C146.205 21.5487 145.028 21.9244 143.592 21.9244C142.624 21.9244 141.614 21.7491 140.562 21.3985C139.527 21.0478 138.608 20.5553 137.807 19.9209L139.159 17.742C140.712 18.9107 142.215 19.4951 143.667 19.4951C144.302 19.4951 144.803 19.3532 145.17 19.0694C145.537 18.7688 145.721 18.3932 145.721 17.9424C145.721 17.2745 144.836 16.6735 143.066 16.1392C142.933 16.0891 142.832 16.0557 142.766 16.039C139.994 15.2877 138.608 14.0355 138.608 12.2824C138.608 11.0469 139.084 10.0618 140.036 9.32722C141.004 8.5759 142.256 8.20024 143.792 8.20024C145.328 8.20024 146.781 8.65103 148.15 9.55261L147.098 11.6313C146.013 10.9133 144.836 10.5544 143.567 10.5544C142.899 10.5544 142.357 10.6796 141.939 10.93C141.522 11.1638 141.313 11.5227 141.313 12.0069C141.313 12.441 141.53 12.7583 141.964 12.9586C142.265 13.1089 142.682 13.2508 143.216 13.3844C143.767 13.5179 144.252 13.6515 144.669 13.7851C145.086 13.9186 145.487 14.0689 145.871 14.2359C146.272 14.4028 146.698 14.6366 147.148 14.9371C148.05 15.5381 148.501 16.4731 148.501 17.742Z" fill="white"/>
<path d="M163.824 16.2895H153.381C153.448 17.2578 153.89 18.0426 154.708 18.6436C155.526 19.228 156.461 19.5202 157.513 19.5202C159.183 19.5202 160.452 18.9942 161.32 17.9424L162.923 19.6955C161.487 21.1814 159.617 21.9244 157.313 21.9244C155.443 21.9244 153.848 21.3066 152.529 20.0711C151.227 18.8189 150.576 17.1493 150.576 15.0623C150.576 12.9586 151.244 11.289 152.579 10.0535C153.915 8.81799 155.484 8.20024 157.288 8.20024C159.107 8.20024 160.652 8.7512 161.921 9.85314C163.19 10.9384 163.824 12.441 163.824 14.3611V16.2895ZM153.381 14.0856H161.019C161.019 12.967 160.669 12.1071 159.967 11.5061C159.266 10.905 158.398 10.6045 157.363 10.6045C156.344 10.6045 155.426 10.9217 154.608 11.5561C153.79 12.1739 153.381 13.017 153.381 14.0856Z" fill="white"/>
<path fill-rule="evenodd" clip-rule="evenodd" d="M0 12.7994V25.5989L15.8808 25.5989L31.7616 25.5989V12.7994L15.8808 0L0 12.7994ZM0 12.7994L2.60224 12.5033C9.31065 11.7397 14.7155 6.65041 15.8808 0C17.046 6.65041 22.4509 11.7397 29.1593 12.5033L31.7616 12.7994L29.1593 13.0956C22.4509 13.8592 17.046 18.9485 15.8808 25.5989C14.7155 18.9485 9.31065 13.8592 2.60224 13.0956L0 12.7994Z" fill="url(#paint0_linear_1_5670)"/>
<defs>
<linearGradient id="paint0_linear_1_5670" x1="0" y1="19.5703" x2="36.6117" y2="19.5703" gradientUnits="userSpaceOnUse">
<stop stop-color="#5433FF"/>
<stop offset="0.5" stop-color="#20BDFF"/>
<stop offset="1" stop-color="#A5FECB"/>
</linearGradient>
</defs>
</svg>
